HIERARCHY
ROOT Hips
{
  OFFSET 365.14 88.179 197.519
  CHANNELS 6 Xposition Yposition Zposition Zrotation Xrotation Yrotation
  JOINT RightUpLeg
  {
    OFFSET -9.25084 -1.53971 -0.0324706
    CHANNELS 3 Zrotation Xrotation Yrotation
    JOINT RightLeg
    {
      OFFSET 0.0147984 -41.8767 0.0743683
      CHANNELS 3 Zrotation Xrotation Yrotation
      JOINT RightFoot
      {
        OFFSET 0.58129 -42.7665 -0.0966173
        CHANNELS 3 Zrotation Xrotation Yrotation
        End Site
        {
          OFFSET 0 -7.69 17.5
        }
      }
    }
  }
  JOINT LeftUpLeg
  {
    OFFSET 9.27183 -1.63567 0.0208533
    CHANNELS 3 Zrotation Xrotation Yrotation
    JOINT LeftLeg
    {
      OFFSET 0.0380064 -41.894 -0.0332375
      CHANNELS 3 Zrotation Xrotation Yrotation
      JOINT LeftFoot
      {
        OFFSET -0.00137207 -40.7578 0.276477
        CHANNELS 3 Zrotation Xrotation Yrotation
        End Site
        {
          OFFSET 0 -7.69 17.5
        }
      }
    }
  }
  JOINT Spine
  {
    OFFSET 0.0273715 14.2953 0.0132618
    CHANNELS 3 Zrotation Xrotation Yrotation
    JOINT Spine1
    {
      OFFSET 0.0356242 9.71545 0.0178671
      CHANNELS 3 Zrotation Xrotation Yrotation
      JOINT Spine2
      {
        OFFSET 0.0275401 10.1205 0.00234803
        CHANNELS 3 Zrotation Xrotation Yrotation
        JOINT Spine3
        {
          OFFSET 0.0388833 9.71499 0.00573168
          CHANNELS 3 Zrotation Xrotation Yrotation
          JOINT Neck
          {
            OFFSET 0.0812761 10.3796 0.11061
            CHANNELS 3 Zrotation Xrotation Yrotation
            JOINT Head
            {
              OFFSET 0.0694951 9.4737 0.0873993
              CHANNELS 3 Zrotation Xrotation Yrotation
              End Site
              {
                OFFSET 0 15.95 0
              }
            }
          }
          JOINT RightShoulder
          {
            OFFSET -3.16911 6.92878 0.0176909
            CHANNELS 3 Zrotation Xrotation Yrotation
            JOINT RightArm
            {
              OFFSET -12.7939 0.0472484 0.0511932
              CHANNELS 3 Zrotation Xrotation Yrotation
              JOINT RightForeArm
              {
                OFFSET -26.5086 -0.00989181 0.0576382
                CHANNELS 3 Zrotation Xrotation Yrotation
                JOINT RightHand
                {
                  OFFSET -26.0357 0.339815 -0.212656
                  CHANNELS 3 Zrotation Xrotation Yrotation
                  JOINT RightHandThumb1
                  {
                    OFFSET -2.48905 0.190105 3.12053
                    CHANNELS 3 Zrotation Xrotation Yrotation
                    JOINT RightHandThumb2
                    {
                      OFFSET -3.68274 0 0
                      CHANNELS 3 Zrotation Xrotation Yrotation
                      JOINT RightHandThumb3
                      {
                        OFFSET -2.55832 0 0
                        CHANNELS 3 Zrotation Xrotation Yrotation
                        End Site
                        {
                          OFFSET -2.194 0 0
                        }
                      }
                    }
                  }
                  JOINT RightInHandIndex
                  {
                    OFFSET -3.22368 0.508421 1.97842
                    CHANNELS 3 Zrotation Xrotation Yrotation
                    JOINT RightHandIndex1
                    {
                      OFFSET -5.21684 -0.091368 0.999158
                      CHANNELS 3 Zrotation Xrotation Yrotation
                      JOINT RightHandIndex2
                      {
                        OFFSET -3.61937 0 0
                        CHANNELS 3 Zrotation Xrotation Yrotation
                        JOINT RightHandIndex3
                        {
                          OFFSET -2.0521 0 0
                          CHANNELS 3 Zrotation Xrotation Yrotation
                          End Site
                          {
                            OFFSET -1.805 0 0
                          }
                        }
                      }
                    }
                  }
                  JOINT RightInHandMiddle
                  {
                    OFFSET -3.38211 0.517263 0.756737
                    CHANNELS 3 Zrotation Xrotation Yrotation
                    JOINT RightHandMiddle1
                    {
                      OFFSET -5.17411 -0.084 0.313895
                      CHANNELS 3 Zrotation Xrotation Yrotation
                      JOINT RightHandMiddle2
                      {
                        OFFSET -3.94947 0 0
                        CHANNELS 3 Zrotation Xrotation Yrotation
                        JOINT RightHandMiddle3
                        {
                          OFFSET -2.47579 0 0
                          CHANNELS 3 Zrotation Xrotation Yrotation
                          End Site
                          {
                            OFFSET -1.975 0 0
                          }
                        }
                      }
                    }
                  }
                  JOINT RightInHandRing
                  {
                    OFFSET -3.36516 0.537895 -0.128947
                    CHANNELS 3 Zrotation Xrotation Yrotation
                    JOINT RightHandRing1
                    {
                      OFFSET -4.63474 -0.022105 -0.478947
                      CHANNELS 3 Zrotation Xrotation Yrotation
                      JOINT RightHandRing2
                      {
                        OFFSET -3.44238 0 0
                        CHANNELS 3 Zrotation Xrotation Yrotation
                        JOINT RightHandRing3
                        {
                          OFFSET -2.3881 0 0
                          CHANNELS 3 Zrotation Xrotation Yrotation
                          End Site
                          {
                            OFFSET -1.857 0 0
                          }
                        }
                      }
                    }
                  }
                  JOINT RightInHandPinky
                  {
                    OFFSET -3.16105 0.469368 -1.20179
                    CHANNELS 3 Zrotation Xrotation Yrotation
                    JOINT RightHandPinky1
                    {
                      OFFSET -4.14105 -0.022105 -1.09053
                      CHANNELS 3 Zrotation Xrotation Yrotation
                      JOINT RightHandPinky2
                      {
                        OFFSET -2.75653 0 0
                        CHANNELS 3 Zrotation Xrotation Yrotation
                        JOINT RightHandPinky3
                        {
                          OFFSET -1.74189 0 0
                          CHANNELS 3 Zrotation Xrotation Yrotation
                          End Site
                          {
                            OFFSET -1.645 0 0
                          }
                        }
                      }
                    }
                  }
                }
              }
            }
          }
          JOINT LeftShoulder
          {
            OFFSET 3.24184 6.89832 -0.0228965
            CHANNELS 3 Zrotation Xrotation Yrotation
            JOINT LeftArm
            {
              OFFSET 12.8376 -0.0155948 -0.0448787
              CHANNELS 3 Zrotation Xrotation Yrotation
              JOINT LeftForeArm
              {
                OFFSET 26.5019 -0.0237061 -0.00609661
                CHANNELS 3 Zrotation Xrotation Yrotation
                JOINT LeftHand
                {
                  OFFSET 25.9931 -0.0767526 0.00928659
                  CHANNELS 3 Zrotation Xrotation Yrotation
                  JOINT LeftHandThumb1
                  {
                    OFFSET 2.48905 0.190105 3.12053
                    CHANNELS 3 Zrotation Xrotation Yrotation
                    JOINT LeftHandThumb2
                    {
                      OFFSET 3.68274 0 0
                      CHANNELS 3 Zrotation Xrotation Yrotation
                      JOINT LeftHandThumb3
                      {
                        OFFSET 2.55832 0 0
                        CHANNELS 3 Zrotation Xrotation Yrotation
                        End Site
                        {
                          OFFSET 2.194 0 0
                        }
                      }
                    }
                  }
                  JOINT LeftInHandIndex
                  {
                    OFFSET 3.22368 0.508421 1.97842
                    CHANNELS 3 Zrotation Xrotation Yrotation
                    JOINT LeftHandIndex1
                    {
                      OFFSET 5.21684 -0.091368 0.999158
                      CHANNELS 3 Zrotation Xrotation Yrotation
                      JOINT LeftHandIndex2
                      {
                        OFFSET 3.61937 0 0
                        CHANNELS 3 Zrotation Xrotation Yrotation
                        JOINT LeftHandIndex3
                        {
                          OFFSET 2.0521 0 0
                          CHANNELS 3 Zrotation Xrotation Yrotation
                          End Site
                          {
                            OFFSET 1.805 0 0
                          }
                        }
                      }
                    }
                  }
                  JOINT LeftInHandMiddle
                  {
                    OFFSET 3.38211 0.517263 0.756737
                    CHANNELS 3 Zrotation Xrotation Yrotation
                    JOINT LeftHandMiddle1
                    {
                      OFFSET 5.17411 -0.084 0.313895
                      CHANNELS 3 Zrotation Xrotation Yrotation
                      JOINT LeftHandMiddle2
                      {
                        OFFSET 3.94947 0 0
                        CHANNELS 3 Zrotation Xrotation Yrotation
                        JOINT LeftHandMiddle3
                        {
                          OFFSET 2.47579 0 0
                          CHANNELS 3 Zrotation Xrotation Yrotation
                          End Site
                          {
                            OFFSET 1.975 0 0
                          }
                        }
                      }
                    }
                  }
                  JOINT LeftInHandRing
                  {
                    OFFSET 3.36516 0.537895 -0.128947
                    CHANNELS 3 Zrotation Xrotation Yrotation
                    JOINT LeftHandRing1
                    {
                      OFFSET 4.63474 -0.022105 -0.478947
                      CHANNELS 3 Zrotation Xrotation Yrotation
                      JOINT LeftHandRing2
                      {
                        OFFSET 3.44238 0 0
                        CHANNELS 3 Zrotation Xrotation Yrotation
                        JOINT LeftHandRing3
                        {
                          OFFSET 2.3881 0 0
                          CHANNELS 3 Zrotation Xrotation Yrotation
                          End Site
                          {
                            OFFSET 1.857 0 0
                          }
                        }
                      }
                    }
                  }
                  JOINT LeftInHandPinky
                  {
                    OFFSET 3.16105 0.469368 -1.20179
                    CHANNELS 3 Zrotation Xrotation Yrotation
                    JOINT LeftHandPinky1
                    {
                      OFFSET 4.14105 -0.022105 -1.09053
                      CHANNELS 3 Zrotation Xrotation Yrotation
                      JOINT LeftHandPinky2
                      {
                        OFFSET 2.75653 0 0
                        CHANNELS 3 Zrotation Xrotation Yrotation
                        JOINT LeftHandPinky3
                        {
                          OFFSET 1.74189 0 0
                          CHANNELS 3 Zrotation Xrotation Yrotation
                          End Site
                          {
                            OFFSET 1.645 0 0
                          }
                        }
                      }
                    }
                  }
                }
              }
            }
          }
        }
      }
    }
  }
}
MOTION
Frames: 3
Frame Time: 0.00833333
2.609771999999999935e+03 8.779860000000002174e+01 2.135260000000000105e+02 1.537559999999999860e+01 -3.014379999999999837e-01 -1.162359999999999900e+02 7.725970000000000226e+00 -4.179470000000000596e+01 1.650550000000000139e+01 -2.879999999999999449e+00 4.407290000000000596e+00 -3.943220000000000613e+00 1.745699999999999719e+01 2.027250000000000085e+01 4.078329999999998989e+01 1.789829999999999899e+01 -2.068360000000000198e+01 1.433740000000000236e+01 -1.689329999999999998e+01 3.508720000000000994e+01 2.572710000000000363e+01 -2.767699999999999605e+00 -2.452400000000000446e+01 1.190860000000000030e+00 3.881979999999999986e+00 8.999069999999997904e+00 3.945320000000000604e+00 1.021679999999999700e+00 2.022590000000000110e+00 1.166619999999999990e+00 1.678639999999999910e+00 3.174180000000000224e+00 2.004179999999999406e+00 -1.298729999999999940e+00 -4.410439999999999361e-01 1.517830000000000235e+00 -2.161060000000000425e+00 -1.636629999999999807e+00 3.902760000000000229e+00 -2.413870000000000715e+01 -4.410120000000000040e+00 2.771069999999999567e+01 4.047119999999999607e+00 -1.332179999999999698e+00 5.452099999999999724e+00 9.067320000000000846e+01 -4.406640000000000157e+01 4.971070000000000988e+01 7.862579999999998392e+01 -3.340840000000000476e+00 7.787229999999999563e+01 2.281279999999999575e+01 -4.636529999999996932e+00 2.147190000000000154e+01 2.818400000000000105e+01 1.072940000000000005e+01 1.915919999999999845e+01 1.509409999999999573e-14 3.180549999999999982e-15 -1.000000000000000000e+01 -1.726969999999999898e-14 -6.361110000000000530e-15 -1.000000000000000000e+01 -6.361110000000000530e-15 0.000000000000000000e+00 3.180549999999999982e-15 1.998179999999999978e+01 8.718970000000000331e-01 2.396399999999999864e+00 2.400000000000000000e+01 6.361109999999999741e-15 -1.217560000000000008e-15 2.000000000000000000e+01 -3.180549999999999587e-15 -1.272219999999999993e-14 -6.361110000000000530e-15 0.000000000000000000e+00 3.180549999999999982e-15 2.000000000000000000e+01 1.272219999999999993e-14 9.541660000000003667e-15 2.400000000000000000e+01 9.541659999999998934e-15 -3.379340000000000201e-15 2.000000000000000000e+01 -6.361110000000001319e-15 -1.431249999999999581e-14 -6.361110000000000530e-15 0.000000000000000000e+00 3.180549999999999982e-15 1.997479999999999833e+01 -1.025649999999999951e+00 -2.819380000000000219e+00 2.400000000000000000e+01 -6.361109999999999741e-15 -1.093320000000000182e-14 2.000000000000000000e+01 3.180549999999999587e-15 -2.385420000000000174e-14 -6.361110000000000530e-15 0.000000000000000000e+00 3.180549999999999982e-15 1.978150000000000119e+01 -3.009479999999999933e+00 -8.305149999999999366e+00 2.400000000000000000e+01 1.908330000000000462e-14 -3.180549999999999587e-15 2.000000000000000000e+01 1.272219999999999993e-14 0.000000000000000000e+00 4.782370000000001120e+00 -1.952779999999999561e+01 -5.598799999999999955e+01 -8.465780000000000527e+00 2.691910000000000025e+01 -1.006179999999999950e+02 2.590820000000000078e+01 5.734460000000000335e+00 -5.000700000000000145e+00 -2.077719999999999700e+01 -1.378539999999999921e+01 -2.849990000000000023e+00 -2.818400000000000105e+01 1.072940000000000005e+01 -1.915919999999999845e+01 6.459239999999998833e-15 0.000000000000000000e+00 1.000000000000000000e+01 -2.316819999999999967e-14 3.180549999999999587e-15 1.000000000000000000e+01 0.000000000000000000e+00 -4.770830000000001045e-15 0.000000000000000000e+00 -1.998179999999999978e+01 8.718970000000000331e-01 -2.396399999999999864e+00 -2.400000000000000000e+01 3.776909999999999283e-15 1.948090000000000462e-14 -2.000000000000000000e+01 1.192710000000000403e-15 6.901560000000000861e-15 0.000000000000000000e+00 -4.770830000000001045e-15 0.000000000000000000e+00 -2.000000000000000000e+01 -3.578119999999999853e-15 1.471010000000000211e-14 -2.400000000000000000e+01 -3.975689999999998147e-15 1.172829999999999772e-14 -2.000000000000000000e+01 -1.590279999999999485e-15 2.718379999999999810e-14 0.000000000000000000e+00 -4.770830000000001045e-15 0.000000000000000000e+00 -1.997479999999999833e+01 -1.025649999999999951e+00 2.819380000000000219e+00 -2.400000000000000000e+01 -5.565969999999999210e-15 5.168399999999999338e-15 -2.000000000000000000e+01 4.770830000000000256e-15 7.479270000000000540e-15 0.000000000000000000e+00 -4.770830000000001045e-15 0.000000000000000000e+00 -1.978150000000000119e+01 -3.009479999999999933e+00 8.305149999999999366e+00 -2.400000000000000000e+01 -4.770830000000000256e-15 1.987850000000000145e-15 -2.000000000000000000e+01 1.590280000000000471e-15 3.031470000000000723e-15
2.609610000000000127e+03 8.779710000000002879e+01 2.134000000000000057e+02 1.538999999999999879e+01 -2.170960000000000667e-01 -1.165960000000000036e+02 8.132390000000000896e+00 -4.166929999999999978e+01 1.689059999999999917e+01 -2.964430000000000121e+00 4.462579999999999103e+00 -3.882779999999999454e+00 1.765769999999999840e+01 2.016700000000000159e+01 4.074949999999999761e+01 1.810460000000000491e+01 -2.055599999999999739e+01 1.470930000000000071e+01 -1.688149999999999906e+01 3.532110000000000127e+01 2.555229999999999535e+01 -2.740720000000000045e+00 -2.469790000000000063e+01 1.383610000000000007e+00 3.981140000000000345e+00 8.768269999999999342e+00 3.600670000000000037e+00 1.040480000000000071e+00 1.983489999999999975e+00 1.077380000000000226e+00 1.710879999999999956e+00 3.123489999999999434e+00 1.855499999999999705e+00 -1.298189999999999955e+00 -4.565649999999999986e-01 1.558759999999999923e+00 -2.327310000000000212e+00 -1.941420000000000368e+00 4.538759999999999906e+00 -2.402050000000000196e+01 -4.137100000000000222e+00 2.818369999999999820e+01 4.128710000000000768e+00 -1.298489999999999922e+00 5.185959999999998793e+00 9.061159999999999570e+01 -4.484609999999999985e+01 5.013430000000000319e+01 7.822430000000001371e+01 -2.563520000000000021e+00 7.797329999999999472e+01 2.248709999999999809e+01 -4.242149999999998755e+00 2.164480000000000359e+01 2.818400000000000105e+01 1.072940000000000005e+01 1.915919999999999845e+01 1.860410000000000110e-14 4.770830000000000256e-15 -1.000000000000000000e+01 -1.993850000000000006e-14 -3.180549999999999982e-15 -1.000000000000000000e+01 -6.361109999999998952e-15 -3.180549999999999982e-15 3.180549999999999587e-15 1.998179999999999978e+01 8.718970000000000331e-01 2.396399999999999864e+00 2.400000000000000000e+01 6.361110000000000530e-15 -6.460499999999999173e-15 2.000000000000000000e+01 -6.361109999999999741e-15 -2.703469999999999890e-14 -6.361109999999998952e-15 -3.180549999999999982e-15 3.180549999999999587e-15 2.000000000000000000e+01 6.361109999999999741e-15 1.590280000000000116e-14 2.400000000000000000e+01 3.180549999999999982e-15 -7.156249999999999484e-15 2.000000000000000000e+01 0.000000000000000000e+00 -1.908330000000000147e-14 -6.361109999999998952e-15 -3.180549999999999982e-15 3.180549999999999587e-15 1.997479999999999833e+01 -1.025649999999999951e+00 -2.819380000000000219e+00 2.400000000000000000e+01 0.000000000000000000e+00 -2.107120000000000366e-14 2.000000000000000000e+01 0.000000000000000000e+00 -3.180550000000000140e-14 -6.361109999999998952e-15 -3.180549999999999982e-15 3.180549999999999587e-15 1.978150000000000119e+01 -3.009479999999999933e+00 -8.305149999999999366e+00 2.400000000000000000e+01 6.361110000000001319e-15 -1.033680000000000183e-14 2.000000000000000000e+01 -3.180549999999999982e-15 -7.951389999999999226e-15 4.722899999999999210e+00 -1.973770000000000024e+01 -5.630559999999999832e+01 -9.579110000000000014e+00 2.732409999999999783e+01 -9.919649999999998613e+01 2.680639999999999645e+01 5.735089999999999577e+00 -7.106860000000000177e+00 -2.069080000000000297e+01 -1.343930000000000113e+01 -3.417800000000000615e+00 -2.818400000000000105e+01 1.072940000000000005e+01 -1.915919999999999845e+01 5.337599999999997433e-15 6.361109999999998163e-15 1.000000000000000000e+01 -1.404010000000000188e-14 6.361109999999999741e-15 1.000000000000000000e+01 0.000000000000000000e+00 -3.578120000000000642e-15 2.385420000000000017e-15 -1.998179999999999978e+01 8.718970000000000331e-01 -2.396399999999999864e+00 -2.400000000000000000e+01 6.361109999999999741e-15 6.708979999999999613e-15 -2.000000000000000000e+01 4.572049999999999815e-15 -1.329369999999999748e-15 0.000000000000000000e+00 -3.578120000000000642e-15 2.385420000000000017e-15 -2.000000000000000000e+01 -3.975690000000002486e-16 1.311980000000000150e-14 -2.400000000000000000e+01 -7.752600000000000585e-15 4.323570000000000163e-15 -2.000000000000000000e+01 -2.385420000000000411e-15 1.266940000000000191e-14 0.000000000000000000e+00 -3.578120000000000642e-15 2.385420000000000017e-15 -1.997479999999999833e+01 -1.025649999999999951e+00 2.819380000000000219e+00 -2.400000000000000000e+01 -1.590280000000000668e-15 -1.133069999999999773e-14 -2.000000000000000000e+01 2.385420000000000411e-15 6.634439999999998998e-15 0.000000000000000000e+00 -3.578120000000000642e-15 2.385420000000000017e-15 -1.978150000000000119e+01 -3.009479999999999933e+00 8.305149999999999366e+00 -2.400000000000000000e+01 0.000000000000000000e+00 -1.630030000000000023e-14 -2.000000000000000000e+01 3.180550000000000771e-15 -5.715060000000000218e-15
2.609438000000000102e+03 8.779600000000000648e+01 2.132819999999999823e+02 1.536040000000000028e+01 -2.527880000000000127e-01 -1.169699999999999847e+02 8.429059999999999775e+00 -4.154110000000000014e+01 1.732910000000000039e+01 -3.032929999999999904e+00 4.516829999999999679e+00 -3.833860000000000046e+00 1.782999999999999829e+01 2.003509999999999991e+01 4.070720000000000027e+01 1.819310000000000116e+01 -2.041059999999999519e+01 1.504929999999999879e+01 -1.689109999999999800e+01 3.549889999999999901e+01 2.544129999999999825e+01 -2.747030000000000083e+00 -2.483819999999999695e+01 1.546100000000000030e+00 3.996809999999999086e+00 8.526390000000001024e+00 3.270469999999999544e+00 1.042229999999999990e+00 1.942609999999999948e+00 9.883229999999999515e-01 1.709549999999999903e+00 3.070709999999999607e+00 1.705910000000000037e+00 -1.297569999999999668e+00 -4.720460000000000211e-01 1.599350000000000049e+00 -2.487009999999999721e+00 -2.254649999999999821e+00 5.207719999999999239e+00 -2.389300000000000068e+01 -3.844250000000000611e+00 2.862940000000000040e+01 4.197799999999999976e+00 -1.267039999999999722e+00 4.922020000000000728e+00 9.054900000000002080e+01 -4.557370000000000232e+01 5.052660000000000196e+01 7.578059999999999263e+01 -2.539520000000000000e+00 8.042040000000000077e+01 2.174490000000000478e+01 -6.251399999999996737e+00 2.064039999999999964e+01 2.818400000000000105e+01 1.072940000000000005e+01 1.915919999999999845e+01 2.183380000000000070e-14 4.770830000000001045e-15 -1.000000000000000000e+01 -2.021890000000000359e-14 -4.770830000000000256e-15 -1.000000000000000000e+01 -3.180550000000000771e-15 0.000000000000000000e+00 1.590279999999999880e-15 1.998179999999999978e+01 8.718970000000000331e-01 2.396399999999999864e+00 2.400000000000000000e+01 -6.361110000000000530e-15 -1.550520000000000117e-14 2.000000000000000000e+01 -6.361109999999999741e-15 -3.021529999999999697e-14 -3.180550000000000771e-15 0.000000000000000000e+00 1.590279999999999880e-15 2.000000000000000000e+01 0.000000000000000000e+00 3.975690000000003669e-15 2.400000000000000000e+01 -3.180549999999999982e-15 -2.345659999999999544e-14 2.000000000000000000e+01 0.000000000000000000e+00 -2.703469999999999890e-14 -3.180550000000000771e-15 0.000000000000000000e+00 1.590279999999999880e-15 1.997479999999999833e+01 -1.025649999999999951e+00 -2.819380000000000219e+00 2.400000000000000000e+01 -3.180549999999999982e-15 -2.166749999999999956e-14 2.000000000000000000e+01 -3.180549999999999982e-15 -3.657639999999999852e-14 -3.180550000000000771e-15 0.000000000000000000e+00 1.590279999999999880e-15 1.978150000000000119e+01 -3.009479999999999933e+00 -8.305149999999999366e+00 2.400000000000000000e+01 6.361110000000001319e-15 -1.033680000000000025e-14 2.000000000000000000e+01 0.000000000000000000e+00 -1.113190000000000089e-14 4.662130000000002106e+00 -1.993670000000000186e+01 -5.660979999999999990e+01 -1.055120000000000147e+01 2.762110000000000198e+01 -9.803310000000000457e+01 2.761199999999999832e+01 5.676269999999998817e+00 -8.961809999999999832e+00 -2.065580000000000283e+01 -1.314210000000000100e+01 -3.994210000000000260e+00 -2.818400000000000105e+01 1.072940000000000005e+01 -1.915919999999999845e+01 1.460090000000000421e-14 -9.541660000000000512e-15 1.000000000000000000e+01 -6.739649999999996619e-15 1.590280000000000274e-15 1.000000000000000000e+01 7.888609052210118054e-31 -5.565969999999999999e-15 3.776910000000000072e-15 -1.998179999999999978e+01 8.718970000000000331e-01 -2.396399999999999864e+00 -2.400000000000000000e+01 6.361109999999998952e-15 8.150169999999999668e-15 -2.000000000000000000e+01 7.951389999999999226e-16 2.826469999999999561e-15 7.888609052210118054e-31 -5.565969999999999999e-15 3.776910000000000072e-15 -2.000000000000000000e+01 -1.789059999999999927e-15 1.451129999999999896e-14 -2.400000000000000000e+01 -1.252340000000000151e-14 1.689670000000000021e-14 -2.000000000000000000e+01 -1.789059999999999927e-15 2.052450000000000130e-14 7.888609052210118054e-31 -5.565969999999999999e-15 3.776910000000000072e-15 -1.997479999999999833e+01 -1.025649999999999951e+00 2.819380000000000219e+00 -2.400000000000000000e+01 -9.144089999999999852e-15 3.727210000000001651e-15 -2.000000000000000000e+01 3.379340000000000201e-15 7.553820000000001722e-15 7.888609052210118054e-31 -5.565969999999999999e-15 3.776910000000000072e-15 -1.978150000000000119e+01 -3.009479999999999933e+00 8.305149999999999366e+00 -2.400000000000000000e+01 -7.951389999999999226e-16 7.156249999999999484e-15 -2.000000000000000000e+01 2.385420000000000805e-15 9.392579999999999281e-15
